<?xml version="1.0" encoding="utf-8"?>
<!-- Generator: Adobe Illustrator 27.9.0, SVG Export Plug-In . SVG Version: 6.00 Build 0)  -->
<svg version="1.1" id="图层_1" xmlns="http://www.w3.org/2000/svg" xmlns:xlink="http://www.w3.org/1999/xlink" x="0px" y="0px"
	 viewBox="0 0 44 44" style="enable-background:new 0 0 44 44;" xml:space="preserve">
<style type="text/css">
	.st0{fill:#0084FF;}
	.st1{fill:none;stroke:#FFFFFF;stroke-width:2;stroke-linecap:round;stroke-linejoin:round;}
	.st2{fill:#FFFFFF;stroke:#FFFFFF;stroke-width:0.5;stroke-linejoin:round;stroke-miterlimit:10;}
</style>
<g id="图层_2_1_">
	<path class="st0" d="M40.1,42H3.9c-1,0-1.9-0.9-1.9-1.9V3.9C2,2.9,2.9,2,3.9,2h36.2c1,0,1.9,0.9,1.9,1.9v36.2
		C42,41.1,41.1,42,40.1,42z"/>
</g>
<g>
	<path class="st1" d="M39.2,18.8C37.9,9.2,29.1,2.7,19.5,4C13.4,4.8,8.3,8.8,5.9,14.5 M4.8,10.2v4.3h1.1"/>
	<path class="st1" d="M4.8,25.2C6.1,34.8,14.9,41.3,24.5,40c6.1-0.9,11.3-4.8,13.6-10.5 M39.2,33.8v-4.3h-1.1"/>
</g>
<g>
	<path class="st2" d="M6.8,16.2h0.7l1.1,7.2c0.2,1.4,0.4,2.7,0.6,4.1h0c0.2-1.4,0.4-2.7,0.7-4.1l1.3-7.2H12l1.3,7.2
		c0.2,1.4,0.4,2.7,0.7,4.1H14c0.2-1.4,0.4-2.7,0.6-4.1l1.1-7.2h0.7l-1.9,12.5h-0.8l-1.5-8.3c-0.2-1-0.3-1.8-0.5-2.8h0
		c-0.2,1-0.3,1.8-0.5,2.8l-1.5,8.3H8.8L6.8,16.2z"/>
	<path class="st2" d="M17.4,24.1c0-3,1.4-4.8,2.8-4.8c1.5,0,2.5,1.6,2.5,4.2c0,0.2,0,0.5,0,0.7h-4.5c0,2.2,1,3.8,2.3,3.8
		c0.7,0,1.2-0.3,1.7-0.8l0.3,0.7c-0.5,0.5-1.1,0.9-2,0.9C18.8,28.9,17.4,27.1,17.4,24.1z M22.1,23.5c0-2.2-0.7-3.3-1.8-3.3
		c-1,0-2,1.2-2.1,3.3H22.1z"/>
	<path class="st2" d="M25.1,27.8L25.1,27.8L25,28.7h-0.6V15.1h0.7V19l0,1.8c0.6-0.8,1.4-1.4,2.2-1.4c1.7,0,2.6,1.8,2.6,4.7
		c0,3.1-1.3,4.9-2.8,4.9C26.4,28.9,25.7,28.5,25.1,27.8z M29,24c0-2.2-0.5-3.8-2-3.8c-0.6,0-1.3,0.5-2,1.4v5.3
		c0.7,0.8,1.3,1.1,1.8,1.1C28.1,28,29,26.4,29,24z"/>
	<path class="st2" d="M31.7,16.2H34c2,0,3.2,0.9,3.2,3.5c0,2.5-1.2,3.7-3.1,3.7h-1.6v5.3h-0.7V16.2z M33.9,22.5
		c1.7,0,2.6-0.8,2.6-2.8c0-2-0.9-2.7-2.6-2.7h-1.4v5.5H33.9z"/>
</g>
</svg>
